<?xml version="1.0" encoding="UTF-8" standalone="no"?>
<!-- Created with Inkscape (http://www.inkscape.org/) -->

<svg
   xmlns:dc="http://purl.org/dc/elements/1.1/"
   xmlns:cc="http://creativecommons.org/ns#"
   xmlns:rdf="http://www.w3.org/1999/02/22-rdf-syntax-ns#"
   xmlns:svg="http://www.w3.org/2000/svg"
   xmlns="http://www.w3.org/2000/svg"
   xmlns:sodipodi="http://sodipodi.sourceforge.net/DTD/sodipodi-0.dtd"
   xmlns:inkscape="http://www.inkscape.org/namespaces/inkscape"
   width="500"
   height="500"
   viewBox="0 0 500.00001 500.00001"
   id="svg2"
   version="1.1"
   inkscape:version="0.91 r13725"
   sodipodi:docname="ctf_logo.svg"
   inkscape:export-filename="D:\Code\reon\lib\ctf\media\ctf-logo-medium.png"
   inkscape:export-xdpi="54"
   inkscape:export-ydpi="54">
  <defs
     id="defs4" />
  <sodipodi:namedview
     id="base"
     pagecolor="#ffffff"
     bordercolor="#666666"
     borderopacity="1.0"
     inkscape:pageopacity="0.0"
     inkscape:pageshadow="2"
     inkscape:zoom="0.98994949"
     inkscape:cx="112.33323"
     inkscape:cy="241.65548"
     inkscape:document-units="px"
     inkscape:current-layer="layer1"
     showgrid="false"
     units="px"
     inkscape:window-width="1304"
     inkscape:window-height="745"
     inkscape:window-x="54"
     inkscape:window-y="-8"
     inkscape:window-maximized="1" />
  <metadata
     id="metadata7">
    <rdf:RDF>
      <cc:Work
         rdf:about="">
        <dc:format>image/svg+xml</dc:format>
        <dc:type
           rdf:resource="http://purl.org/dc/dcmitype/StillImage" />
        <dc:title />
      </cc:Work>
    </rdf:RDF>
  </metadata>
  <g
     inkscape:label="Layer 1"
     inkscape:groupmode="layer"
     id="layer1"
     transform="translate(0,-552.36216)">
    <g
       id="g4184"
       transform="matrix(1.0498104,0,0,1.0388363,-51.008976,421.15893)">
      <text
         sodipodi:linespacing="125%"
         id="text3336"
         y="416.6756"
         x="137.56105"
         style="font-style:normal;font-weight:normal;font-size:142.06692505px;line-height:125%;font-family:sans-serif;letter-spacing:0px;word-spacing:0px;fill:#000000;fill-opacity:1;stroke:none;stroke-width:1px;stroke-linecap:butt;stroke-linejoin:miter;stroke-opacity:1"
         xml:space="preserve"><tspan
           style="font-style:normal;font-variant:normal;font-weight:normal;font-stretch:normal;font-family:'Vafle VUT';-inkscape-font-specification:'Vafle VUT'"
           y="416.6756"
           x="137.56105"
           id="tspan3338"
           sodipodi:role="line">TF</tspan></text>
      <g
         transform="translate(-434.28571,-51.428571)"
         id="text3340"
         style="font-style:normal;font-weight:normal;font-size:205.35897827px;line-height:125%;font-family:sans-serif;letter-spacing:0px;word-spacing:0px;fill:#000000;fill-opacity:1;stroke:none;stroke-width:1px;stroke-linecap:butt;stroke-linejoin:miter;stroke-opacity:1">
        <path
           inkscape:connector-curvature="0"
           id="path3345"
           style="font-style:normal;font-variant:normal;font-weight:normal;font-stretch:normal;font-family:'Vafle VUT';-inkscape-font-specification:'Vafle VUT'"
           d="m 659.62009,478.66798 0,21.56259 c 0,15.8419 -10.56128,26.40317 -26.40317,26.40317 l -61.60741,0 c -15.8419,0 -26.40317,-10.56127 -26.40317,-26.40317 l 0,-163.69967 c 0,-15.84189 10.56127,-26.40317 26.40317,-26.40317 l 61.60741,0 c 15.84189,0 26.40317,10.56128 26.40317,26.40317 l 0,21.56259 52.80633,0 0,-18.92228 c 0,-44.44532 -30.36365,-74.80897 -74.80897,-74.80897 l -70.40847,0 c -44.44535,0 -74.80899,30.36365 -74.80899,74.80897 l 0,158.41903 c 0,44.44535 30.36364,74.80899 74.80899,74.80899 l 70.40847,0 c 44.44532,0 74.80897,-30.36364 74.80897,-74.80899 l 0,-18.92226 -52.80633,0 z" />
      </g>
      <g
         style="font-style:normal;font-weight:normal;font-size:205.35897827px;line-height:125%;font-family:sans-serif;letter-spacing:0px;word-spacing:0px;fill:#969696;fill-opacity:1;stroke:none;stroke-width:1px;stroke-linecap:butt;stroke-linejoin:miter;stroke-opacity:1"
         id="g4176"
         transform="matrix(-1,0,0,1,1007.7397,-51.428571)">
        <path
           d="m 659.62009,478.66798 0,21.56259 c 0,15.8419 -10.56128,26.40317 -26.40317,26.40317 l -61.60741,0 c -15.8419,0 -26.40317,-10.56127 -26.40317,-26.40317 l 0,-163.69967 c 0,-15.84189 10.56127,-26.40317 26.40317,-26.40317 l 61.60741,0 c 15.84189,0 26.40317,10.56128 26.40317,26.40317 l 0,21.56259 52.80633,0 0,-18.92228 c 0,-44.44532 -30.36365,-74.80897 -74.80897,-74.80897 l -70.40847,0 c -44.44535,0 -74.80899,30.36365 -74.80899,74.80897 l 0,158.41903 c 0,44.44535 30.36364,74.80899 74.80899,74.80899 l 70.40847,0 c 44.44532,0 74.80897,-30.36364 74.80897,-74.80899 l 0,-18.92226 -52.80633,0 z"
           style="font-style:normal;font-variant:normal;font-weight:normal;font-stretch:normal;font-family:'Vafle VUT';-inkscape-font-specification:'Vafle VUT';fill:#969696;fill-opacity:1"
           id="path4178"
           inkscape:connector-curvature="0" />
      </g>
      <path
         inkscape:transform-center-x="-8.4053003"
         transform="matrix(0.71503994,-0.4128285,0.4128285,0.71503994,-85.028305,241.56128)"
         d="m 313.23759,396.93043 35.26504,-61.08082 35.26503,61.08083 z"
         inkscape:randomized="0"
         inkscape:rounded="0"
         inkscape:flatsided="true"
         sodipodi:arg2="3.6651914"
         sodipodi:arg1="2.6179939"
         sodipodi:r2="20.360275"
         sodipodi:r1="40.720551"
         sodipodi:cy="376.57016"
         sodipodi:cx="348.50262"
         sodipodi:sides="3"
         id="path4180"
         style="opacity:1;fill:none;fill-opacity:1;stroke:#969696;stroke-width:18.16735077;stroke-linejoin:miter;stroke-miterlimit:4;stroke-dasharray:none;stroke-opacity:1"
         sodipodi:type="star" />
      <circle
         r="18.348869"
         cy="366.95218"
         cx="405.32651"
         id="path4182"
         style="opacity:1;fill:none;fill-opacity:1;stroke:#969696;stroke-width:15;stroke-linejoin:miter;stroke-miterlimit:4;stroke-dasharray:none;stroke-opacity:1" />
    </g>
  </g>
</svg>
